<svg width="209" height="64" viewBox="0 0 209 64" fill="none" xmlns="http://www.w3.org/2000/svg">
<path d="M209 43.6564V47.5106C208.253 50.8397 207.011 53.9472 204.762 56.5549C197.314 65.19 180.919 67.9509 175.551 55.8646C167.014 36.6411 200.997 20.0997 208.443 41.4667L209 43.6549V43.6564ZM192.31 37.7702C185.016 38.4455 179.015 46.9186 182.742 53.7389C186.221 60.1056 195.007 58.2016 199.029 53.3611C204.254 47.0733 201.456 36.9238 192.31 37.7702Z" fill="white"/>
<path d="M20.5279 0.0729085C24.9729 0.547434 29.0025 4.11902 29.8555 8.4924C32.5707 22.4188 10.9711 31.5002 4.73234 19.2979C0.342447 10.7118 8.42557 1.03684 17.1071 0.0729085C17.9154 -0.016344 19.7166 -0.0133689 20.5279 0.0729085ZM17.2247 4.85982C13.4734 5.25699 9.64176 8.64859 9.24132 12.4686C8.32285 21.2347 18.1715 22.5586 22.673 16.5147C26.3439 11.585 24.0753 4.1339 17.2262 4.85982H17.2247Z" fill="white"/>
<path d="M146.821 0.0728409C147.266 0.120442 148.323 0.409025 148.787 0.559267C152.018 1.6065 153.38 4.33316 152.771 7.63253H147.119C147.583 4.81215 144.198 4.58158 142.2 5.02933C139.816 5.56485 138.522 7.92558 141.213 9.14387C144.674 10.7103 151.431 10.3443 151.884 15.7069C152.53 23.3677 143.705 25.8683 137.563 24.7883C135.301 24.3912 131.499 22.3592 131.499 19.7143V16.9713H137.151C136.375 20.9133 143.259 20.833 145.186 19.2725C146.184 18.4648 146.549 16.6961 145.532 15.8095C142.899 13.5113 134.698 14.319 134.038 9.32535C133.312 3.8155 138.001 0.572655 142.951 0.0728409C143.888 -0.0223617 145.885 -0.0268244 146.818 0.0728409H146.821Z" fill="white"/>
<path d="M27.2222 63.3723L32.7419 32.2574L47.2365 32.2351C58.8744 33.5456 58.5201 46.4218 49.4902 51.6892C49.1225 51.9034 48.5583 51.9004 48.4854 52.3303L52.2858 61.2987L69.305 32.3377C71.5811 32.1265 73.9777 32.2827 76.2955 32.2574L83.4512 63.3738H75.8653L74.6833 58.3995L61.8367 58.3623C61.3499 58.508 59.4043 62.4798 58.8907 63.1358L58.5364 63.3753L44.7222 63.3545L40.9858 53.2912C40.6866 52.9327 37.102 53.2659 36.3845 53.1365L34.5134 63.3738H27.2237L27.2222 63.3723ZM37.4861 46.9171H44.5525C45.4457 46.9171 47.04 45.7613 47.5982 45.0607C49.3785 42.8279 48.926 39.0004 45.7062 38.5036C45.0363 38.3995 39.2367 38.3355 38.9628 38.5318L37.4861 46.9171ZM73.3361 52.2544L71.2521 41.8773L65.3036 52.2544H73.3361Z" fill="white"/>
<path d="M84.0466 63.3722L89.4011 32.241L95.9227 32.2663L107.325 50.621L110.672 32.2425H117.961L112.437 63.3529C110.347 63.3142 108.172 63.5359 106.124 63.2369C102.416 57.6006 99.1366 51.6638 95.4136 46.0409C95.2484 45.7925 94.8286 44.9937 94.5353 44.9892L91.113 63.3722H84.0466Z" fill="white"/>
<path d="M23.2074 46.7713L25.0607 47.9598C27.9113 50.3116 28.087 54.1272 26.5835 57.3254C24.6096 61.5292 19.7568 63.1491 15.4011 63.3782C10.3533 63.643 5.07021 63.1684 -0.00146484 63.3708L5.51828 32.2558L20.4505 32.241C21.5089 32.3972 22.5241 32.5117 23.5393 32.8687C30.2559 35.2235 29.1945 44.3317 23.2044 46.7698L23.2074 46.7713ZM10.5617 44.6932H17.3304C18.6954 44.6932 20.3865 42.6627 20.513 41.3403C20.9551 36.7423 14.508 38.4857 11.7719 38.1896L10.5617 44.6932ZM8.33025 57.2941H16.4372C16.5116 57.2941 17.6385 56.8241 17.8067 56.7319C20.7675 55.0985 20.8732 50.4604 17.0386 50.1733C14.6166 49.9918 11.9669 50.3205 9.52113 50.1807L8.33025 57.2956V57.2941Z" fill="white"/>
<path d="M87.1697 0.666373L86.418 5.40271L75.1343 5.42502L74.2278 10.3027H83.8963L83.0135 14.9825L73.3361 15.0479L72.5903 19.6415H84.0451L83.6 21.7166L84.1106 21.4116L96.268 0.690174L101.502 0.658936L107.104 24.3852H101.303C100.918 23.3648 100.892 21.904 100.531 20.9297C100.488 20.8136 100.451 20.7274 100.317 20.6991L90.5131 20.6693L90.2809 20.772L88.3621 24.3867H66.1982L70.3619 0.666373H87.1712H87.1697ZM99.3688 15.9345L97.6584 8.07582L93.27 15.9345H99.3688Z" fill="white"/>
<path d="M115.583 63.3722L121.107 32.2618C125.665 32.4284 130.469 31.9732 135.002 32.235C145.411 32.839 149.995 40.5504 147.373 50.3592C145.983 55.5641 142.333 59.521 137.401 61.6199C130.722 64.4611 122.682 62.9989 115.583 63.3722ZM124.06 57.1469C128.453 57.0963 133.378 57.6631 137.005 54.7014C141.404 51.1104 142.686 41.4637 136.447 39.0956C134.524 38.3652 129.765 38.2001 127.699 38.4604C127.536 38.4812 127.365 38.447 127.253 38.6091L124.06 57.1469Z" fill="white"/>
<path d="M168.688 35.5032L175.234 63.9658H167.722C167.032 62.6464 167.082 60.6873 166.579 59.3232C166.536 59.2072 166.499 59.1209 166.365 59.0927L153.243 59.0971L150.541 63.9644H142.806L158.128 37.5769C161.582 38.5795 165.019 36.9997 168.098 35.5716C168.3 35.4779 168.619 35.5374 168.69 35.5002L168.688 35.5032ZM164.968 52.8465L162.811 42.3191L157.085 52.8465H164.968Z" fill="white"/>
<path d="M107.401 24.3852L111.581 0.682694C112.454 0.795747 116.064 0.414936 116.547 0.816573C119.47 5.15722 121.964 9.96644 124.927 14.2565C125.032 14.4082 125.077 14.6388 125.323 14.6031L127.779 0.666331H133.282L129.198 24.2424C129.086 24.4045 128.916 24.3718 128.752 24.3911C127.98 24.4878 125.482 24.4953 124.721 24.3911C124.558 24.3688 124.398 24.3763 124.272 24.2454C121.263 19.6399 118.524 14.8367 115.432 10.2997L112.827 24.3822H107.398L107.401 24.3852Z" fill="white"/>
<path d="M29.3047 24.3852L33.6856 0.65747C37.2791 0.874651 41.148 0.400125 44.7073 0.660445C53.886 1.3343 52.8559 13.2168 45.5081 15.878L48.792 24.3852H42.6188L39.7204 16.7482L36.1478 16.6753L34.7351 24.3852H29.3062H29.3047ZM37.0395 11.9315H42.3196C42.5205 11.9315 43.695 11.463 43.9317 11.3142C45.6079 10.261 46.3968 7.52099 44.7653 6.08551C43.3348 4.82705 40.0658 5.62288 38.2497 5.4295L37.0395 11.9315Z" fill="white"/>
<path d="M59.2049 0.66626L55.9314 19.6413H65.8991L65.1548 24.3851H49.5349L53.7 0.66626H59.2049Z" fill="white"/>
<path d="M170.176 21.7165C169.446 20.9251 167.584 19.0047 167.05 18.2342C166.963 18.1092 166.841 18.0884 166.904 17.8623L185.05 14.0081L181.26 33.5782C181.077 33.8221 181.038 33.6481 180.888 33.4993C179.841 32.4595 178.622 30.9973 177.613 29.8697C176.937 29.1155 176.157 28.3435 175.53 27.6458C174.545 26.5495 173.568 25.3521 172.555 24.2364C171.782 23.3855 170.907 22.5108 170.174 21.7165H170.176ZM176.572 18.5287C176.424 19.1237 176.681 20.2334 176.572 20.8998C176.572 21.12 174.267 21.5975 173.896 21.7165C173.734 21.9233 176.16 22.731 176.407 22.7697C176.422 23.329 176.455 23.9032 176.431 24.464C176.423 24.6365 176.071 25.7477 176.496 25.5677C176.819 25.4324 177.884 23.5774 178.15 23.512L180.737 24.3822C180.962 24.1665 179.401 22.438 179.401 22.0854C179.401 21.6525 180.816 20.3658 181.032 19.86L178.229 20.5161L176.872 18.377C176.793 18.2386 176.583 18.4885 176.574 18.5272L176.572 18.5287Z" fill="#323579"/>
<path d="M172.556 24.2364C169.443 27.1416 165.926 30.1494 162.146 32.171C160.332 33.1409 155.154 35.3692 153.375 33.9382C153.119 33.7314 151.437 31.1892 151.583 31.0568C155.33 32.0713 158.859 30.5436 161.983 28.5979C165.025 26.7013 167.605 24.1769 170.177 21.7166C170.91 22.5109 171.785 23.3856 172.558 24.2364H172.556Z" fill="#C52428"/>
<path d="M177.613 29.8698C174.875 31.9628 171.88 33.6869 168.79 35.2042C168.654 35.2711 168.702 35.4957 168.687 35.5032C168.616 35.5389 168.297 35.4794 168.095 35.5746C165.015 37.0026 161.579 38.5809 158.126 37.5798L156.043 36.3957C158.347 36.833 160.513 36.2812 162.664 35.5076C167.382 33.8103 171.52 30.5556 175.529 27.6475C176.156 28.3451 176.936 29.1172 177.611 29.8713L177.613 29.8698Z" fill="white"/>
<path d="M154.706 31.2042C153.539 31.2325 152.414 30.8963 151.311 30.5839C150.88 28.6397 150.35 26.9513 150.727 24.9417C151.095 22.9766 152.32 20.7319 153.59 19.1968L155.29 25.205C154.161 26.9915 154.574 29.2109 154.705 31.2042H154.706Z" fill="white"/>
<path d="M176.572 18.5287C176.583 18.4885 176.791 18.2401 176.87 18.3784L178.228 20.5175L181.031 19.8615C180.815 20.3673 179.399 21.654 179.399 22.0869C179.399 22.4394 180.959 24.1679 180.736 24.3836L178.149 23.5134C177.882 23.5774 176.818 25.4338 176.495 25.5692C176.068 25.7477 176.422 24.638 176.429 24.4654C176.453 23.9046 176.42 23.3305 176.406 22.7711C176.158 22.7339 173.732 21.9262 173.894 21.718C174.265 21.599 176.571 21.12 176.571 20.9013C176.679 20.2334 176.422 19.1252 176.571 18.5302L176.572 18.5287Z" fill="#FDFDFD"/>
</svg>
